<?xml version="1.0" encoding="UTF-8" standalone="no"?>
<svg width="37px" height="21px" viewBox="0 0 37 21" version="1.1" xmlns="http://www.w3.org/2000/svg" xmlns:xlink="http://www.w3.org/1999/xlink" xmlns:sketch="http://www.bohemiancoding.com/sketch/ns">
    <!-- Generator: Sketch 3.0.4 (8053) - http://www.bohemiancoding.com/sketch -->
    <title>align-self_flex-end</title>
    <desc>Created with Sketch.</desc>
    <defs>
        <rect id="path-1" x="0" y="0" width="37" height="21"></rect>
    </defs>
    <g id="Page-1" stroke="none" stroke-width="1" fill="none" fill-rule="evenodd" sketch:type="MSPage">
        <g id="item" sketch:type="MSArtboardGroup" transform="translate(-27.000000, -627.000000)">
            <g id="align-self_flex-end" sketch:type="MSLayerGroup" transform="translate(27.000000, 627.000000)">
                <mask id="mask-2" sketch:name="mask" fill="white">
                    <use xlink:href="#path-1"></use>
                </mask>
                <use id="mask" fill="#272822" sketch:type="MSShapeGroup" xlink:href="#path-1"></use>
                <g id="elements" mask="url(#mask-2)" fill="#75715E" sketch:type="MSShapeGroup">
                    <path d="M0.00543854944,1.99456143 L0.00543854944,19.0054385 C0.00543854944,20.1070044 0.907782299,21 2,21 L35.0054385,21 C36.1070044,21 37,20.0976562 37,19.0054385 L37,1.99456143 C37,0.892995562 36.0976562,-1.67638062e-08 35.0054385,-1.67638062e-08 L2,-1.67638062e-08 C0.898434128,-1.67638062e-08 0.00543854944,0.902343733 0.00543854944,1.99456143 Z" id="Rectangle-19" opacity="0.239999995"></path>
                    <path d="M2,2.99895656 L2,4.00104344 C2,4.55275191 2.4463114,5 2.99754465,5 L10.0024554,5 C10.553384,5 11,4.55733967 11,4.00104344 L11,2.99895656 C11,2.44724809 10.5536886,2 10.0024554,2 L2.99754465,2 C2.44661595,2 2,2.44266033 2,2.99895656 Z M10.0024554,3 C10.0009345,3 10,4.00104344 10,4.00104344 C10,4.00307541 2.99754465,4 2.99754465,4 C2.99906549,4 3,2.99895656 3,2.99895656 C3,2.99692459 10.0024554,3 10.0024554,3 Z" id="Rectangle-15"></path>
                    <path d="M29,2.99980749 L29,6.00019251 C29,6.55237094 29.4509752,7 29.990778,7 L34.009222,7 C34.5564136,7 35,6.55628335 35,6.00019251 L35,2.99980749 C35,2.44762906 34.5490248,2 34.009222,2 L29.990778,2 C29.4435864,2 29,2.44371665 29,2.99980749 Z M34.009222,3 C33.9984093,3 34,6.00019251 34,6.00019251 C34,6.00406733 29.990778,6 29.990778,6 C30.0015907,6 30,2.99980749 30,2.99980749 C30,2.99593267 34.009222,3 34.009222,3 Z" id="Rectangle-18"></path>
                </g>
                <g id="selector" mask="url(#mask-2)" fill="#A6E22D" sketch:type="MSShapeGroup">
                    <g transform="translate(12.000000, 12.000000)">
                        <path d="M0,1.00292933 L0,5.99707067 C0,6.55097324 0.444630861,7 1.00087166,7 L14.9991283,7 C15.5518945,7 16,6.56211865 16,5.99707067 L16,1.00292933 C16,0.449026756 15.5553691,0 14.9991283,0 L1.00087166,0 C0.448105505,0 0,0.437881351 0,1.00292933 Z M14.9991283,1 C15.0008847,1 15,5.99707067 15,5.99707067 C15,6.00471541 1.00087166,6 1.00087166,6 C0.999115311,6 1,1.00292933 1,1.00292933 C1,0.995284586 14.9991283,1 14.9991283,1 Z"></path>
                    </g>
                </g>
            </g>
        </g>
    </g>
</svg>