<?xml version="1.0" encoding="UTF-8" standalone="no"?>
<svg width="37px" height="21px" viewBox="0 0 37 21" version="1.1" xmlns="http://www.w3.org/2000/svg" xmlns:xlink="http://www.w3.org/1999/xlink">
    <!-- Generator: Sketch 3.8.3 (29802) - http://www.bohemiancoding.com/sketch -->
    <title>align-items_baseline</title>
    <desc>Created with Sketch.</desc>
    <defs>
        <rect id="path-1" x="0" y="0" width="37" height="21"></rect>
    </defs>
    <g id="Page-1" stroke="none" stroke-width="1" fill="none" fill-rule="evenodd">
        <g id="container" transform="translate(-27.000000, -687.000000)">
            <g id="align-items_baseline" transform="translate(27.000000, 687.000000)">
                <mask id="mask-2" fill="white">
                    <use xlink:href="#path-1"></use>
                </mask>
                <use id="mask" fill="#272822" xlink:href="#path-1"></use>
                <path d="M12,8 L12,6 L28,6 L28,8 L12,8 Z M12,11 L12,16 L28,16 L28,11 L12,11 Z M2,9 L2,5 L11,5 L11,8 L2,8 L2,9 Z M29,8 L29,6 L35,6 L35,13 L29,13 L29,11 L35,11 L35,8 L29,8 Z" id="Combined-Shape" fill="#75715E" mask="url(#mask-2)"></path>
                <path d="M2,9.5 L35,9.5" id="value" stroke="#66D9EF" mask="url(#mask-2)"></path>
                <path d="M0.00543854944,1.99456143 L0.00543854944,19.0054385 C0.00543854944,20.1070044 0.907782299,21 2,21 L35.0054385,21 C36.1070044,21 37,20.0976562 37,19.0054385 L37,1.99456143 C37,0.892995562 36.0976562,-1.67638062e-08 35.0054385,-1.67638062e-08 L2,-1.67638062e-08 C0.898434128,-1.67638062e-08 0.00543854944,0.902343733 0.00543854944,1.99456143 Z M35.0054385,0.999999983 C35.5493223,0.999999983 36,1.44922332 36,1.99456143 L36,19.0054385 C36,19.5493223 35.5507767,20 35.0054385,20 L1.99456145,20 C1.45067766,20 1,19.5507766 1,19.0054385 L1,1.99456142 C1,1.45067762 1.44922334,0.999999966 1.99456145,0.999999966 L35.0054385,0.999999983 Z" id="selector" fill="#A6E22D" mask="url(#mask-2)"></path>
            </g>
        </g>
    </g>
</svg>