<?xml version="1.0" encoding="UTF-8" standalone="no"?>
<svg width="37px" height="21px" viewBox="0 0 37 21" version="1.1" xmlns="http://www.w3.org/2000/svg" xmlns:xlink="http://www.w3.org/1999/xlink" xmlns:sketch="http://www.bohemiancoding.com/sketch/ns">
    <!-- Generator: Sketch 3.0.4 (8053) - http://www.bohemiancoding.com/sketch -->
    <title>align-self_center</title>
    <desc>Created with Sketch.</desc>
    <defs>
        <rect id="path-1" x="0" y="0" width="37" height="21"></rect>
    </defs>
    <g id="Page-1" stroke="none" stroke-width="1" fill="none" fill-rule="evenodd" sketch:type="MSPage">
        <g id="item" sketch:type="MSArtboardGroup" transform="translate(-27.000000, -597.000000)">
            <g id="align-self_center" sketch:type="MSLayerGroup" transform="translate(27.000000, 597.000000)">
                <mask id="mask-2" sketch:name="Rectangle 26" fill="white">
                    <use xlink:href="#path-1"></use>
                </mask>
                <use id="Rectangle-26" fill="#272822" sketch:type="MSShapeGroup" xlink:href="#path-1"></use>
                <g id="elements" mask="url(#mask-2)" fill="#75715E" opacity="0.239999995" sketch:type="MSShapeGroup">
                    <path d="M0.00543854944,1.99456143 L0.00543854944,19.0054385 C0.00543854944,20.1070044 0.907782299,21 2,21 L35.0054385,21 C36.1070044,21 37,20.0976562 37,19.0054385 L37,1.99456143 C37,0.892995562 36.0976562,-1.67638062e-08 35.0054385,-1.67638062e-08 L2,-1.67638062e-08 C0.898434128,-1.67638062e-08 0.00543854944,0.902343733 0.00543854944,1.99456143 Z" id="Rectangle-18"></path>
                </g>
                <g id="selector" mask="url(#mask-2)" sketch:type="MSShapeGroup">
                    <g transform="translate(2.000000, 2.000000)">
                        <path d="M10,6.00292933 L10,10.9970707 C10,11.5509732 10.4446309,12 11.0008717,12 L24.9991283,12 C25.5518945,12 26,11.5621186 26,10.9970707 L26,6.00292933 C26,5.44902676 25.5553691,5 24.9991283,5 L11.0008717,5 C10.4481055,5 10,5.43788135 10,6.00292933 Z M24.9991283,6 C25.0008847,6 25,10.9970707 25,10.9970707 C25,11.0047154 11.0008717,11 11.0008717,11 C10.9991153,11 11,6.00292933 11,6.00292933 C11,5.99528459 24.9991283,6 24.9991283,6 Z" id="selector" fill="#A6E22D"></path>
                        <path d="M0,0.998956561 L0,2.00104344 C0,2.55275191 0.446311399,3 0.997544646,3 L8.00245535,3 C8.55338405,3 9,2.55733967 9,2.00104344 L9,0.998956561 C9,0.447248087 8.5536886,0 8.00245535,0 L0.997544646,0 C0.446615951,0 0,0.442660332 0,0.998956561 Z M8.00245535,1 C8.00093451,1 8,2.00104344 8,2.00104344 C8,2.00307541 0.997544646,2 0.997544646,2 C0.999065494,2 1,0.998956561 1,0.998956561 C1,0.996924591 8.00245535,1 8.00245535,1 Z" id="Rectangle-15" fill="#75715E"></path>
                        <path d="M27,0.999807492 L27,4.00019251 C27,4.55237094 27.4509752,5 27.990778,5 L32.009222,5 C32.5564136,5 33,4.55628335 33,4.00019251 L33,0.999807492 C33,0.447629061 32.5490248,0 32.009222,0 L27.990778,0 C27.4435864,0 27,0.443716645 27,0.999807492 Z M32.009222,1 C31.9984093,1 32,4.00019251 32,4.00019251 C32,4.00406733 27.990778,4 27.990778,4 C28.0015907,4 28,0.999807492 28,0.999807492 C28,0.995932674 32.009222,1 32.009222,1 Z" id="Rectangle-18" fill="#75715E"></path>
                    </g>
                </g>
            </g>
        </g>
    </g>
</svg>