<?xml version="1.0" encoding="UTF-8" standalone="no"?>
<svg width="37px" height="21px" viewBox="0 0 37 21" version="1.1" xmlns="http://www.w3.org/2000/svg" xmlns:xlink="http://www.w3.org/1999/xlink">
    <!-- Generator: Sketch 3.8.3 (29802) - http://www.bohemiancoding.com/sketch -->
    <title>align-self_baseline</title>
    <desc>Created with Sketch.</desc>
    <defs>
        <rect id="path-1" x="0" y="0" width="37" height="21"></rect>
    </defs>
    <g id="Page-1" stroke="none" stroke-width="1" fill="none" fill-rule="evenodd">
        <g id="item" transform="translate(-27.000000, -687.000000)">
            <g id="align-self_baseline" transform="translate(27.000000, 687.000000)">
                <mask id="mask-2" fill="white">
                    <use xlink:href="#path-1"></use>
                </mask>
                <use id="mask" fill="#272822" xlink:href="#path-1"></use>
                <path d="M0.00543854944,1.99456143 L0.00543854944,19.0054385 C0.00543854944,20.1070044 0.907782299,21 2,21 L35.0054385,21 C36.1070044,21 37,20.0976562 37,19.0054385 L37,1.99456143 C37,0.892995562 36.0976562,-1.67638062e-08 35.0054385,-1.67638062e-08 L2,-1.67638062e-08 C0.898434128,-1.67638062e-08 0.00543854944,0.902343733 0.00543854944,1.99456143 Z" id="Rectangle-20" fill="#75715E" opacity="0.239999995" mask="url(#mask-2)"></path>
                <path d="M2,2.99895656 L2,4.00104344 C2,4.55275191 2.4463114,5 2.99754465,5 L10.0024554,5 C10.553384,5 11,4.55733967 11,4.00104344 L11,2.99895656 C11,2.44724809 10.5536886,2 10.0024554,2 L2.99754465,2 C2.44661595,2 2,2.44266033 2,2.99895656 Z M10.0024554,3 C10.0009345,3 10,4.00104344 10,4.00104344 C10,4.00307541 2.99754465,4 2.99754465,4 C2.99906549,4 3,2.99895656 3,2.99895656 C3,2.99692459 10.0024554,3 10.0024554,3 Z" id="Rectangle-14" fill="#75715E" mask="url(#mask-2)"></path>
                <path d="M29,2.99980749 L29,6.00019251 C29,6.55237094 29.4509752,7 29.990778,7 L34.009222,7 C34.5564136,7 35,6.55628335 35,6.00019251 L35,2.99980749 C35,2.44762906 34.5490248,2 34.009222,2 L29.990778,2 C29.4435864,2 29,2.44371665 29,2.99980749 Z M34.009222,3 C33.9984093,3 34,6.00019251 34,6.00019251 C34,6.00406733 29.990778,6 29.990778,6 C30.0015907,6 30,2.99980749 30,2.99980749 C30,2.99593267 34.009222,3 34.009222,3 Z" id="Rectangle-17" fill="#75715E" mask="url(#mask-2)"></path>
                <path d="M12,8.00292933 L12,12.9970707 C12,13.5509732 12.4446309,14 13.0008717,14 L26.9991283,14 C27.5518945,14 28,13.5621186 28,12.9970707 L28,8.00292933 C28,7.44902676 27.5553691,7 26.9991283,7 L13.0008717,7 C12.4481055,7 12,7.43788135 12,8.00292933 Z M26.9991283,8 C27.0008847,8 27,12.9970707 27,12.9970707 C27,13.0047154 13.0008717,13 13.0008717,13 C12.9991153,13 13,8.00292933 13,8.00292933 C13,7.99528459 26.9991283,8 26.9991283,8 Z" id="selector" fill="#A6E22D" mask="url(#mask-2)"></path>
                <path d="M2,9.5 L35,9.5" id="value" stroke="#66D9EF" mask="url(#mask-2)"></path>
                <path d="M2,9.5 L35,9.5" id="value" stroke="#66D9EF" mask="url(#mask-2)"></path>
            </g>
        </g>
    </g>
</svg>