<?xml version="1.0" encoding="UTF-8" standalone="no"?>
<svg width="37px" height="21px" viewBox="0 0 37 21" version="1.1" xmlns="http://www.w3.org/2000/svg" xmlns:xlink="http://www.w3.org/1999/xlink">
    <!-- Generator: Sketch 3.8.3 (29802) - http://www.bohemiancoding.com/sketch -->
    <title>display_flex</title>
    <desc>Created with Sketch.</desc>
    <defs>
        <rect id="path-1" x="0" y="0" width="37" height="21"></rect>
    </defs>
    <g id="Page-1" stroke="none" stroke-width="1" fill="none" fill-rule="evenodd">
        <g id="container" transform="translate(-27.000000, -27.000000)">
            <g id="display_flex" transform="translate(27.000000, 27.000000)">
                <mask id="mask-2" fill="white">
                    <use xlink:href="#path-1"></use>
                </mask>
                <use id="mask" fill="#272822" xlink:href="#path-1"></use>
                <g id="elements" mask="url(#mask-2)" fill="#75715E">
                    <rect id="element" x="0" y="0" width="37" height="1"></rect>
                    <rect id="element" x="0" y="20" width="37" height="1"></rect>
                </g>
                <path d="M4,6.0085302 L4,14.9914698 C4,16.1007504 4.90234375,17 5.99456145,17 L31.0054385,17 C32.1070044,17 33,16.0980496 33,14.9914698 L33,6.0085302 C33,4.8992496 32.0976562,4 31.0054385,4 L5.99456145,4 C4.89299558,4 4,4.90195036 4,6.0085302 Z M31.0054385,5 C31.5477596,5 32,5.45393805 32,6.0085302 L32,14.9914698 C32,15.54846 31.5520164,16 31.0054385,16 L5.99456145,16 C5.4522404,16 5,15.546062 5,14.9914698 L5,6.0085302 C5,5.45153999 5.44798357,5 5.99456145,5 L31.0054385,5 Z" id="selector" fill="#A6E22D" mask="url(#mask-2)"></path>
            </g>
        </g>
    </g>
</svg>