<?xml version="1.0" encoding="UTF-8" standalone="no"?>
<svg width="37px" height="21px" viewBox="0 0 37 21" version="1.1" xmlns="http://www.w3.org/2000/svg" xmlns:xlink="http://www.w3.org/1999/xlink" xmlns:sketch="http://www.bohemiancoding.com/sketch/ns">
    <!-- Generator: Sketch 3.0.4 (8053) - http://www.bohemiancoding.com/sketch -->
    <title>display_inline-flex</title>
    <desc>Created with Sketch.</desc>
    <defs>
        <rect id="path-1" x="0" y="0" width="37" height="21"></rect>
    </defs>
    <g id="Page-1" stroke="none" stroke-width="1" fill="none" fill-rule="evenodd" sketch:type="MSPage">
        <g id="container" sketch:type="MSArtboardGroup" transform="translate(-27.000000, -57.000000)">
            <g id="display_inline-flex" sketch:type="MSLayerGroup" transform="translate(27.000000, 57.000000)">
                <mask id="mask-2" sketch:name="mask" fill="white">
                    <use xlink:href="#path-1"></use>
                </mask>
                <use id="mask" fill="#272822" sketch:type="MSShapeGroup" xlink:href="#path-1"></use>
                <g id="elements" mask="url(#mask-2)" fill="#75715E" sketch:type="MSShapeGroup">
                    <g transform="translate(1.000000, 8.000000)" id="element">
                        <rect x="0" y="8" width="36" height="1"></rect>
                        <path d="M4,1.99791312 L4,4.00208688 C4,5.10550383 4.89826062,6 5.99791312,6 L9.00208688,6 C10.1055038,6 11,5.10173938 11,4.00208688 L11,1.99791312 C11,0.894496173 10.1017394,0 9.00208688,0 L5.99791312,0 C4.89449617,0 4,0.898260623 4,1.99791312 Z M9.00208688,1 C9.55104571,1 10,1.44837074 10,1.99791312 L10,4.00208688 C10,4.55104571 9.55162926,5 9.00208688,5 L5.99791312,5 C5.44895429,5 5,4.55162926 5,4.00208688 L5,1.99791312 C5,1.44895429 5.44837074,1 5.99791312,1 L9.00208688,1 Z"></path>
                        <path d="M25,3.0048815 L25,3.9951185 C25,5.10238398 25.8982606,6 26.9979131,6 L30.0020869,6 C31.1055038,6 32,5.1061002 32,3.9951185 L32,3.0048815 C32,1.89761602 31.1017394,1 30.0020869,1 L26.9979131,1 C25.8944962,1 25,1.8938998 25,3.0048815 Z M30.0020869,2 C30.5502659,2 31,2.45071608 31,3.0048815 L31,3.9951185 C31,4.55302399 30.5540065,5 30.0020869,5 L26.9979131,5 C26.4497341,5 26,4.54928392 26,3.9951185 L26,3.0048815 C26,2.44697601 26.4459935,2 26.9979131,2 L30.0020869,2 Z"></path>
                    </g>
                </g>
                <path d="M14,7.99810135 L14,12.0018986 C14,13.1054196 14.8865548,14 16.0059191,14 L21.9940809,14 C23.1019194,14 24,13.1132936 24,12.0018986 L24,7.99810135 C24,6.89458045 23.1134452,6 21.9940809,6 L16.0059191,6 C14.8980806,6 14,6.88670635 14,7.99810135 Z M21.9940809,7 C22.5571637,7 23,7.44286817 23,7.99810135 L23,12.0018986 C23,12.5567997 22.5538512,13 21.9940809,13 L16.0059191,13 C15.4428363,13 15,12.5571318 15,12.0018986 L15,7.99810135 C15,7.44320035 15.4461488,7 16.0059191,7 L21.9940809,7 Z" id="selector" fill="#A6E22D" sketch:type="MSShapeGroup" mask="url(#mask-2)"></path>
            </g>
        </g>
    </g>
</svg>