<?xml version="1.0" encoding="UTF-8" standalone="no"?>
<svg width="37px" height="21px" viewBox="0 0 37 21" version="1.1" xmlns="http://www.w3.org/2000/svg" xmlns:xlink="http://www.w3.org/1999/xlink">
    <!-- Generator: Sketch 3.8.3 (29802) - http://www.bohemiancoding.com/sketch -->
    <title>flex-grow_0</title>
    <desc>Created with Sketch.</desc>
    <defs>
        <rect id="path-1" x="0" y="0" width="37" height="21"></rect>
    </defs>
    <g id="Page-1" stroke="none" stroke-width="1" fill="none" fill-rule="evenodd">
        <g id="item" transform="translate(-27.000000, -177.000000)">
            <g id="flex-grow_0" transform="translate(27.000000, 177.000000)">
                <mask id="mask-2" fill="white">
                    <use xlink:href="#path-1"></use>
                </mask>
                <use id="mask" fill="#272822" xlink:href="#path-1"></use>
                <g id="elements" mask="url(#mask-2)" fill="#75715E">
                    <path d="M0.00543854944,1.99456143 L0.00543854944,19.0054385 C0.00543854944,20.1070044 0.907782299,21 2,21 L35.0054385,21 C36.1070044,21 37,20.0976562 37,19.0054385 L37,1.99456143 C37,0.892995562 36.0976562,-1.67638062e-08 35.0054385,-1.67638062e-08 L2,-1.67638062e-08 C0.898434128,-1.67638062e-08 0.00543854944,0.902343733 0.00543854944,1.99456143 Z" id="element" opacity="0.239999995"></path>
                    <path d="M31,2.9999602 L31,18.0000398 C31,18.5523026 31.4433532,19 32.0093689,19 L33.9906311,19 C34.5480902,19 35,18.5452911 35,18.0000398 L35,2.9999602 C35,2.44769743 34.5566468,2 33.9906311,2 L32.0093689,2 C31.4519098,2 31,2.45470893 31,2.9999602 Z M33.9906311,3 C34.0021871,3 34,2.99782053 34,2.9999602 L34,18.0000398 C34,17.9944105 33.9943851,18 33.9906311,18 L32.0093689,18 C31.9978129,18 32,18.0021795 32,18.0000398 L32,2.9999602 C32,3.00558949 32.0056149,3 32.0093689,3 L33.9906311,3 Z M26,2.9999602 L26,18.0000398 C26,18.5523026 26.4433532,19 27.0093689,19 L28.9906311,19 C29.5480902,19 30,18.5452911 30,18.0000398 L30,2.9999602 C30,2.44769743 29.5566468,2 28.9906311,2 L27.0093689,2 C26.4519098,2 26,2.45470893 26,2.9999602 Z M28.9906311,3 C29.0021871,3 29,2.99782053 29,2.9999602 L29,18.0000398 C29,17.9944105 28.9943851,18 28.9906311,18 L27.0093689,18 C26.9978129,18 27,18.0021795 27,18.0000398 L27,2.9999602 C27,3.00558949 27.0056149,3 27.0093689,3 L28.9906311,3 Z" id="Combined-Shape"></path>
                </g>
                <path d="M2,2.9999602 L2,18.0000398 C2,18.5523026 2.43891776,19 3.00307055,19 L23.9969294,19 C24.55091,19 25,18.5452911 25,18.0000398 L25,2.9999602 C25,2.44769743 24.5610822,2 23.9969294,2 L3.00307055,2 C2.44908998,2 2,2.45470893 2,2.9999602 Z M23.9969294,3 C24.004404,3 24,18.0000398 24,18.0000398 C24,17.9958139 3.00307055,18 3.00307055,18 C2.995596,18 3,2.9999602 3,2.9999602 C3,3.0041861 23.9969294,3 23.9969294,3 Z" id="selector" fill="#A6E22D" mask="url(#mask-2)"></path>
                <path d="M16,10 L16,7 L20,10.5 L16,14 L16,11 L11,11 L11,14 L7,10.5 L11,7 L11,10 L16,10 L16,10 Z M5,7 L6,7 L6,14 L5,14 L5,7 L5,7 Z M21,7 L22,7 L22,14 L21,14 L21,7 L21,7 Z" id="value" fill="#66D9EF" mask="url(#mask-2)"></path>
            </g>
        </g>
    </g>
</svg>