<?xml version="1.0" encoding="UTF-8" standalone="no"?>
<svg class="effect" width="37px" height="21px" viewBox="0 0 37 21" version="1.1" xmlns="http://www.w3.org/2000/svg" xmlns:xlink="http://www.w3.org/1999/xlink" xmlns:sketch="http://www.bohemiancoding.com/sketch/ns">
    <!-- Generator: Sketch 3.0.4 (8053) - http://www.bohemiancoding.com/sketch -->
    <title>flex-shrink_0</title>
    <desc>Created with Sketch.</desc>
    <defs>
        <rect id="path-1" x="0" y="0" width="37" height="21"></rect>
    </defs>
    <g id="Page-1" stroke="none" stroke-width="1" fill="none" fill-rule="evenodd" sketch:type="MSPage">
        <g id=".item" sketch:type="MSArtboardGroup" transform="translate(-27.000000, -207.000000)">
            <g id="flex-shrink_0" sketch:type="MSLayerGroup" transform="translate(27.000000, 207.000000)">
                <mask id="mask-2" sketch:name="mask" fill="white">
                    <use xlink:href="#path-1"></use>
                </mask>
                <use id="mask" fill="#272822" sketch:type="MSShapeGroup" xlink:href="#path-1"></use>
                <g id="elements" mask="url(#mask-2)" sketch:type="MSShapeGroup">
                    <g transform="translate(-1.000000, 0.000000)">
                        <path d="M0.00543854944,1.99456143 L0.00543854944,19.0054385 C0.00543854944,20.1070044 0.907782299,21 2,21 L35.0054385,21 C36.1070044,21 37,20.0976562 37,19.0054385 L37,1.99456143 C37,0.892995562 36.0976562,-1.67638062e-08 35.0054385,-1.67638062e-08 L2,-1.67638062e-08 C0.898434128,-1.67638062e-08 0.00543854944,0.902343733 0.00543854944,1.99456143 Z" id="element" opacity="0.239999995" fill="#75715E"></path>
                        <path d="M23,2.9999602 L23,18.0000398 C23,18.5523026 23.4474894,19 23.9985023,19 L35.0014977,19 C35.5529553,19 36,18.5452911 36,18.0000398 L36,2.9999602 C36,2.44769743 35.5525106,2 35.0014977,2 L23.9985023,2 C23.4470447,2 23,2.45470893 23,2.9999602 Z M35.0014977,3 C35.0001215,3 35,18.0000398 35,18.0000398 C35,17.9968312 23.9985023,18 23.9985023,18 C23.9998785,18 24,2.9999602 24,2.9999602 C24,3.00316882 35.0014977,3 35.0014977,3 Z" id="Rectangle-153" fill="#75715E"></path>
                        <path d="M3,2.9999602 L3,18.0000398 C3,18.5523026 3.44335318,19 4.0093689,19 L5.9906311,19 C6.54809015,19 7,18.5452911 7,18.0000398 L7,2.9999602 C7,2.44769743 6.55664682,2 5.9906311,2 L4.0093689,2 C3.45190985,2 3,2.45470893 3,2.9999602 Z M5.9906311,3 C6.0021871,3 6,2.99782053 6,2.9999602 L6,18.0000398 C6,17.9944105 5.99438512,18 5.9906311,18 L4.0093689,18 C3.9978129,18 4,18.0021795 4,18.0000398 L4,2.9999602 C4,3.00558949 4.00561488,3 4.0093689,3 L5.9906311,3 Z" id="Rectangle-152" fill="#A6E22D"></path>
                    </g>
                </g>
                <path d="M7,2.9999602 L7,18.0000398 C7,18.5523026 7.44994876,19 8.00684547,19 L19.9931545,19 C20.5492199,19 21,18.5452911 21,18.0000398 L21,2.9999602 C21,2.44769743 20.5500512,2 19.9931545,2 L8.00684547,2 C7.45078007,2 7,2.45470893 7,2.9999602 Z M19.9931545,3 C19.9988829,3 20,18.0000398 20,18.0000398 C20,17.9949729 8.00684547,18 8.00684547,18 C8.00111715,18 8,2.9999602 8,2.9999602 C8,3.00502712 19.9931545,3 19.9931545,3 Z" id="selector" fill="#75715E" sketch:type="MSShapeGroup" mask="url(#mask-2)"></path>
            </g>
        </g>
    </g>
</svg>
