<?xml version="1.0" encoding="UTF-8" standalone="no"?>
<svg width="37px" height="21px" viewBox="0 0 37 21" version="1.1" xmlns="http://www.w3.org/2000/svg" xmlns:xlink="http://www.w3.org/1999/xlink" xmlns:sketch="http://www.bohemiancoding.com/sketch/ns">
    <!-- Generator: Sketch 3.0.4 (8053) - http://www.bohemiancoding.com/sketch -->
    <title>flex-wrap_nowrap</title>
    <desc>Created with Sketch.</desc>
    <defs>
        <rect id="path-1" x="0" y="0" width="37" height="21"></rect>
    </defs>
    <g id="Page-1" stroke="none" stroke-width="1" fill="none" fill-rule="evenodd" sketch:type="MSPage">
        <g id="container" sketch:type="MSArtboardGroup" transform="translate(-27.000000, -267.000000)">
            <g id="flex-wrap_nowrap" sketch:type="MSLayerGroup" transform="translate(27.000000, 267.000000)">
                <mask id="mask-2" sketch:name="mask" fill="white">
                    <use xlink:href="#path-1"></use>
                </mask>
                <use id="mask" fill="#272822" sketch:type="MSShapeGroup" xlink:href="#path-1"></use>
                <g id="elements" mask="url(#mask-2)" fill="#75715E" sketch:type="MSShapeGroup">
                    <g transform="translate(2.000000, 3.000000)">
                        <rect id="Rectangle-12" x="10" y="0" width="16" height="5"></rect>
                        <rect id="Rectangle-13" x="0" y="0" width="9" height="5"></rect>
                        <rect id="Rectangle-16" x="27" y="0" width="8" height="5"></rect>
                    </g>
                </g>
                <path d="M37,10 L37,19.0054385 C37,20.0976562 36.1070044,21 35.0054385,21 L2,21 C0.907782299,21 0.00543854944,20.1070044 0.00543854944,19.0054385 L0.00543854944,1.99456143 C0.00543854944,0.902343733 0.898434128,-1.67638062e-08 2,-1.67638062e-08 L35.0054385,-1.67638062e-08 C35.7385551,-1.67638062e-08 36.386127,0.402324931 36.7326985,1 L35.0056202,1 C35.0055596,0.999999989 35.0054991,0.999999983 35.0054385,0.999999983 L1.99456145,0.999999966 C1.44922334,0.999999966 1,1.45067762 1,1.99456142 L1,19.0054385 C1,19.5507766 1.45067766,20 1.99456145,20 L35.0054385,20 C35.5507767,20 36,19.5493223 36,19.0054385 L36,10 L37,10 Z" id="selector" fill="#A6E22D" sketch:type="MSShapeGroup" mask="url(#mask-2)"></path>
            </g>
        </g>
    </g>
</svg>