<?xml version="1.0" encoding="UTF-8" standalone="no"?>
<svg width="37px" height="21px" viewBox="0 0 37 21" version="1.1" xmlns="http://www.w3.org/2000/svg" xmlns:xlink="http://www.w3.org/1999/xlink" xmlns:sketch="http://www.bohemiancoding.com/sketch/ns">
    <!-- Generator: Sketch 3.0.4 (8053) - http://www.bohemiancoding.com/sketch -->
    <title>align-self_flex-end</title>
    <desc>Created with Sketch.</desc>
    <defs>
        <rect id="path-1" x="0" y="0" width="37" height="21"></rect>
    </defs>
    <g id="Page-1" stroke="none" stroke-width="1" fill="none" fill-rule="evenodd" sketch:type="MSPage">
        <g id=".item" sketch:type="MSArtboardGroup" transform="translate(-27.000000, -627.000000)">
            <g id="align-self_flex-end" sketch:type="MSLayerGroup" transform="translate(27.000000, 627.000000)">
                <mask id="mask-2" sketch:name="mask" fill="white">
                    <use xlink:href="#path-1"></use>
                </mask>
                <use id="mask" fill="#272822" sketch:type="MSShapeGroup" xlink:href="#path-1"></use>
                <g id="elements" mask="url(#mask-2)" fill="#75715E" opacity="0.239999995" sketch:type="MSShapeGroup">
                    <path d="M0.00543854944,1.99456143 L0.00543854944,19.0054385 C0.00543854944,20.1070044 0.907782299,21 2,21 L35.0054385,21 C36.1070044,21 37,20.0976562 37,19.0054385 L37,1.99456143 C37,0.892995562 36.0976562,-1.67638062e-08 35.0054385,-1.67638062e-08 L2,-1.67638062e-08 C0.898434128,-1.67638062e-08 0.00543854944,0.902343733 0.00543854944,1.99456143 Z" id="Rectangle-19"></path>
                </g>
                <g id="selector" mask="url(#mask-2)" fill="#A6E22D" sketch:type="MSShapeGroup">
                    <g transform="translate(2.000000, 12.000000)">
                        <path d="M0,4.99895656 L0,6.00104344 C0,6.55275191 0.446311399,7 0.997544646,7 L8.00245535,7 C8.55338405,7 9,6.55733967 9,6.00104344 L9,4.99895656 C9,4.44724809 8.5536886,4 8.00245535,4 L0.997544646,4 C0.446615951,4 0,4.44266033 0,4.99895656 Z M8.00245535,5 C8.00093451,5 8,6.00104344 8,6.00104344 C8,6.00307541 0.997544646,6 0.997544646,6 C0.999065494,6 1,4.99895656 1,4.99895656 C1,4.99692459 8.00245535,5 8.00245535,5 Z" id="Rectangle-14"></path>
                        <path d="M27,2.99980749 L27,6.00019251 C27,6.55237094 27.4509752,7 27.990778,7 L32.009222,7 C32.5564136,7 33,6.55628335 33,6.00019251 L33,2.99980749 C33,2.44762906 32.5490248,2 32.009222,2 L27.990778,2 C27.4435864,2 27,2.44371665 27,2.99980749 Z M32.009222,3 C31.9984093,3 32,6.00019251 32,6.00019251 C32,6.00406733 27.990778,6 27.990778,6 C28.0015907,6 28,2.99980749 28,2.99980749 C28,2.99593267 32.009222,3 32.009222,3 Z" id="Rectangle-17"></path>
                        <path d="M10,1.00292933 L10,5.99707067 C10,6.55097324 10.4446309,7 11.0008717,7 L24.9991283,7 C25.5518945,7 26,6.56211865 26,5.99707067 L26,1.00292933 C26,0.449026756 25.5553691,0 24.9991283,0 L11.0008717,0 C10.4481055,0 10,0.437881351 10,1.00292933 Z M24.9991283,1 C25.0008847,1 25,5.99707067 25,5.99707067 C25,6.00471541 11.0008717,6 11.0008717,6 C10.9991153,6 11,1.00292933 11,1.00292933 C11,0.995284586 24.9991283,1 24.9991283,1 Z" id="selector"></path>
                    </g>
                </g>
            </g>
        </g>
    </g>
</svg>