<?xml version="1.0" encoding="UTF-8" standalone="no"?>
<svg width="37px" height="21px" viewBox="0 0 37 21" version="1.1" xmlns="http://www.w3.org/2000/svg" xmlns:xlink="http://www.w3.org/1999/xlink" xmlns:sketch="http://www.bohemiancoding.com/sketch/ns">
    <!-- Generator: Sketch 3.0.4 (8053) - http://www.bohemiancoding.com/sketch -->
    <title>align-self_stretch</title>
    <desc>Created with Sketch.</desc>
    <defs>
        <rect id="path-1" x="0" y="0" width="37" height="21"></rect>
    </defs>
    <g id="Page-1" stroke="none" stroke-width="1" fill="none" fill-rule="evenodd" sketch:type="MSPage">
        <g id=".item" sketch:type="MSArtboardGroup" transform="translate(-27.000000, -657.000000)">
            <g id="align-self_stretch" sketch:type="MSLayerGroup" transform="translate(27.000000, 657.000000)">
                <mask id="mask-2" sketch:name="mask" fill="white">
                    <use xlink:href="#path-1"></use>
                </mask>
                <use id="mask" fill="#272822" sketch:type="MSShapeGroup" xlink:href="#path-1"></use>
                <g id="elements" mask="url(#mask-2)" fill="#75715E" opacity="0.239999995" sketch:type="MSShapeGroup">
                    <path d="M0.00543854944,1.99456143 L0.00543854944,19.0054385 C0.00543854944,20.1070044 0.907782299,21 2,21 L35.0054385,21 C36.1070044,21 37,20.0976562 37,19.0054385 L37,1.99456143 C37,0.892995562 36.0976562,-1.67638062e-08 35.0054385,-1.67638062e-08 L2,-1.67638062e-08 C0.898434128,-1.67638062e-08 0.00543854944,0.902343733 0.00543854944,1.99456143 Z" id="Rectangle-19"></path>
                </g>
                <g id="selector" mask="url(#mask-2)" fill="#A6E22D" sketch:type="MSShapeGroup">
                    <g transform="translate(2.000000, 2.000000)">
                        <path d="M0,0.999960201 L0,16.0000398 C0,16.5523026 0.446311399,17 0.997544646,17 L8.00245535,17 C8.55338405,17 9,16.5452911 9,16.0000398 L9,0.999960201 C9,0.447697432 8.5536886,0 8.00245535,0 L0.997544646,0 C0.446615951,0 0,0.454708934 0,0.999960201 Z M8.00245535,1 C8.00070918,1 8,16.0000398 8,16.0000398 C8,15.9970444 0.997544646,16 0.997544646,16 C0.999290816,16 1,0.999960201 1,0.999960201 C1,1.00295563 8.00245535,1 8.00245535,1 Z" id="Rectangle-14"></path>
                        <path d="M27,0.999960201 L27,16.0000398 C27,16.5523026 27.4509752,17 27.990778,17 L32.009222,17 C32.5564136,17 33,16.5452911 33,16.0000398 L33,0.999960201 C33,0.447697432 32.5490248,0 32.009222,0 L27.990778,0 C27.4435864,0 27,0.454708934 27,0.999960201 Z M32.009222,1 C31.998375,1 32,16.0000398 32,16.0000398 C32,15.9985499 27.990778,16 27.990778,16 C28.001625,16 28,0.999960201 28,0.999960201 C28,1.0014501 32.009222,1 32.009222,1 Z" id="Rectangle-17"></path>
                        <path d="M10,0.999960201 L10,16.0000398 C10,16.5523026 10.4446309,17 11.0008717,17 L24.9991283,17 C25.5518945,17 26,16.5452911 26,16.0000398 L26,0.999960201 C26,0.447697432 25.5553691,0 24.9991283,0 L11.0008717,0 C10.4481055,0 10,0.454708934 10,0.999960201 Z M24.9991283,1 C25.0015506,1 25,16.0000398 25,16.0000398 C25,15.9963036 11.0008717,16 11.0008717,16 C10.9984494,16 11,0.999960201 11,0.999960201 C11,1.00369637 24.9991283,1 24.9991283,1 Z" id="selector"></path>
                    </g>
                </g>
            </g>
        </g>
    </g>
</svg>