<?xml version="1.0" encoding="UTF-8" standalone="no"?>
<svg width="37px" height="21px" viewBox="0 0 37 21" version="1.1" xmlns="http://www.w3.org/2000/svg" xmlns:xlink="http://www.w3.org/1999/xlink" xmlns:sketch="http://www.bohemiancoding.com/sketch/ns">
    <!-- Generator: Sketch 3.0.4 (8053) - http://www.bohemiancoding.com/sketch -->
    <title>align-self_baseline</title>
    <desc>Created with Sketch.</desc>
    <defs>
        <rect id="path-1" x="0" y="0" width="37" height="21"></rect>
    </defs>
    <g id="Page-1" stroke="none" stroke-width="1" fill="none" fill-rule="evenodd" sketch:type="MSPage">
        <g id=".item" sketch:type="MSArtboardGroup" transform="translate(-27.000000, -687.000000)">
            <g id="align-self_baseline" sketch:type="MSLayerGroup" transform="translate(27.000000, 687.000000)">
                <mask id="mask-2" sketch:name="mask" fill="white">
                    <use xlink:href="#path-1"></use>
                </mask>
                <use id="mask" fill="#272822" sketch:type="MSShapeGroup" xlink:href="#path-1"></use>
                <g id="elements" mask="url(#mask-2)" fill="#75715E" opacity="0.239999995" sketch:type="MSShapeGroup">
                    <path d="M0.00543854944,1.99456143 L0.00543854944,19.0054385 C0.00543854944,20.1070044 0.907782299,21 2,21 L35.0054385,21 C36.1070044,21 37,20.0976562 37,19.0054385 L37,1.99456143 C37,0.892995562 36.0976562,-1.67638062e-08 35.0054385,-1.67638062e-08 L2,-1.67638062e-08 C0.898434128,-1.67638062e-08 0.00543854944,0.902343733 0.00543854944,1.99456143 Z" id="Rectangle-20"></path>
                </g>
                <g id="selector" mask="url(#mask-2)" fill="#A6E22D" sketch:type="MSShapeGroup">
                    <g transform="translate(2.000000, 7.000000)">
                        <path d="M0,0.998956561 L0,2.00104344 C0,2.55275191 0.446311399,3 0.997544646,3 L8.00245535,3 C8.55338405,3 9,2.55733967 9,2.00104344 L9,0.998956561 C9,0.447248087 8.5536886,0 8.00245535,0 L0.997544646,0 C0.446615951,0 0,0.442660332 0,0.998956561 Z M8.00245535,1 C8.00093451,1 8,2.00104344 8,2.00104344 C8,2.00307541 0.997544646,2 0.997544646,2 C0.999065494,2 1,0.998956561 1,0.998956561 C1,0.996924591 8.00245535,1 8.00245535,1 Z" id="Rectangle-14"></path>
                        <path d="M27,0.999807492 L27,4.00019251 C27,4.55237094 27.4509752,5 27.990778,5 L32.009222,5 C32.5564136,5 33,4.55628335 33,4.00019251 L33,0.999807492 C33,0.447629061 32.5490248,0 32.009222,0 L27.990778,0 C27.4435864,0 27,0.443716645 27,0.999807492 Z M32.009222,1 C31.9984093,1 32,4.00019251 32,4.00019251 C32,4.00406733 27.990778,4 27.990778,4 C28.0015907,4 28,0.999807492 28,0.999807492 C28,0.995932674 32.009222,1 32.009222,1 Z" id="Rectangle-17"></path>
                        <path d="M10,1.00292933 L10,5.99707067 C10,6.55097324 10.4446309,7 11.0008717,7 L24.9991283,7 C25.5518945,7 26,6.56211865 26,5.99707067 L26,1.00292933 C26,0.449026756 25.5553691,0 24.9991283,0 L11.0008717,0 C10.4481055,0 10,0.437881351 10,1.00292933 Z M24.9991283,1 C25.0008847,1 25,5.99707067 25,5.99707067 C25,6.00471541 11.0008717,6 11.0008717,6 C10.9991153,6 11,1.00292933 11,1.00292933 C11,0.995284586 24.9991283,1 24.9991283,1 Z" id="selector"></path>
                    </g>
                </g>
                <path d="M2,9.5 L35,9.5" id="value" stroke="#66D9EF" sketch:type="MSShapeGroup" mask="url(#mask-2)"></path>
            </g>
        </g>
    </g>
</svg>