<?xml version="1.0" encoding="UTF-8" standalone="no"?>
<svg width="37px" height="21px" viewBox="0 0 37 21" version="1.1" xmlns="http://www.w3.org/2000/svg" xmlns:xlink="http://www.w3.org/1999/xlink" xmlns:sketch="http://www.bohemiancoding.com/sketch/ns">
    <!-- Generator: Sketch 3.0.4 (8053) - http://www.bohemiancoding.com/sketch -->
    <title>order_0</title>
    <desc>Created with Sketch.</desc>
    <defs>
        <rect id="path-1" x="0" y="0" width="37" height="21"></rect>
    </defs>
    <g id="Page-1" stroke="none" stroke-width="1" fill="none" fill-rule="evenodd" sketch:type="MSPage">
        <g id=".item" sketch:type="MSArtboardGroup" transform="translate(-27.000000, -117.000000)">
            <g id="order_0" sketch:type="MSLayerGroup" transform="translate(27.000000, 117.000000)">
                <mask id="mask-2" sketch:name="mask" fill="white">
                    <use xlink:href="#path-1"></use>
                </mask>
                <use id="mask" fill="#272822" sketch:type="MSShapeGroup" xlink:href="#path-1"></use>
                <g id="elements" mask="url(#mask-2)" sketch:type="MSShapeGroup">
                    <path d="M0.00543854944,1.99456143 L0.00543854944,19.0054385 C0.00543854944,20.1070044 0.907782299,21 2,21 L35.0054385,21 C36.1070044,21 37,20.0976562 37,19.0054385 L37,1.99456143 C37,0.892995562 36.0976562,-1.67638062e-08 35.0054385,-1.67638062e-08 L2,-1.67638062e-08 C0.898434128,-1.67638062e-08 0.00543854944,0.902343733 0.00543854944,1.99456143 Z" id="element" opacity="0.239999995" fill="#75715E"></path>
                    <path d="M2,2.99895656 L2,6.00104344 C2,6.55275191 2.4463114,7 2.99754465,7 L10.0024554,7 C10.553384,7 11,6.55733967 11,6.00104344 L11,2.99895656 C11,2.44724809 10.5536886,2 10.0024554,2 L2.99754465,2 C2.44661595,2 2,2.44266033 2,2.99895656 Z M10.0024554,3 C10.0009345,3 10,6.00104344 10,6.00104344 C10,6.00307541 2.99754465,6 2.99754465,6 C2.99906549,6 3,2.99895656 3,2.99895656 C3,2.99692459 10.0024554,3 10.0024554,3 Z" id="Rectangle-14" fill="#75715E"></path>
                    <path d="M29,2.99980749 L29,6.00019251 C29,6.55237094 29.4509752,7 29.990778,7 L34.009222,7 C34.5564136,7 35,6.55628335 35,6.00019251 L35,2.99980749 C35,2.44762906 34.5490248,2 34.009222,2 L29.990778,2 C29.4435864,2 29,2.44371665 29,2.99980749 Z M34.009222,3 C33.9984093,3 34,6.00019251 34,6.00019251 C34,6.00406733 29.990778,6 29.990778,6 C30.0015907,6 30,2.99980749 30,2.99980749 C30,2.99593267 34.009222,3 34.009222,3 Z" id="Rectangle-17" fill="#75715E"></path>
                    <g id="value" transform="translate(3.000000, 8.000000)">
                        <path d="M6.12745875,-0.373875282 L2.12745875,3.12612472 L6.12745875,6.62612472 L6.12745875,-0.373875282 Z" id="value-2" fill="#66D9EF" transform="translate(4.127459, 3.126125) rotate(-292.000000) translate(-4.127459, -3.126125) "></path>
                        <path d="M4.8530554,4.914605 C5.64169677,6.8195214 7.73201044,9.83852776 11.0481798,9.70934034 C14.3643492,9.58015292 17.1507658,6.8995312 17.3677071,2.55180426" id="Path-119" stroke="#66D9EF"></path>
                    </g>
                </g>
                <path d="M12,3.00292933 L12,7.99707067 C12,8.55097324 12.4446309,9 13.0008717,9 L26.9991283,9 C27.5518945,9 28,8.56211865 28,7.99707067 L28,3.00292933 C28,2.44902676 27.5553691,2 26.9991283,2 L13.0008717,2 C12.4481055,2 12,2.43788135 12,3.00292933 Z M26.9991283,3 C27.0008847,3 27,7.99707067 27,7.99707067 C27,8.00471541 13.0008717,8 13.0008717,8 C12.9991153,8 13,3.00292933 13,3.00292933 C13,2.99528459 26.9991283,3 26.9991283,3 Z" id="selector" fill="#A6E22D" sketch:type="MSShapeGroup" mask="url(#mask-2)"></path>
            </g>
        </g>
    </g>
</svg>